<mxfile host="app.diagrams.net" agent="Mozilla/5.0 (Windows NT 10.0; Win64; x64) AppleWebKit/537.36 (KHTML, like Gecko) Chrome/128.0.0.0 Safari/537.36" version="24.7.16">
  <diagram name="Página-1" id="kcIxKAWgCtaz62oegx_W">
    <mxGraphModel dx="1405" dy="882" grid="1" gridSize="10" guides="1" tooltips="1" connect="1" arrows="1" fold="1" page="1" pageScale="1" pageWidth="2339" pageHeight="3300" math="0" shadow="0">
      <root>
        <mxCell id="0" />
        <mxCell id="1" parent="0" />
        <mxCell id="7aNGyFdgT1ng_6vokH2H-2" value="EQUIPA" style="whiteSpace=wrap;html=1;align=center;" parent="1" vertex="1">
          <mxGeometry x="1049" y="510" width="100" height="40" as="geometry" />
        </mxCell>
        <mxCell id="7aNGyFdgT1ng_6vokH2H-3" value="CodEscola" style="ellipse;whiteSpace=wrap;html=1;align=center;fontStyle=4;" parent="1" vertex="1">
          <mxGeometry x="919" y="510" width="80" height="40" as="geometry" />
        </mxCell>
        <mxCell id="7aNGyFdgT1ng_6vokH2H-4" value="Nome" style="ellipse;whiteSpace=wrap;html=1;align=center;" parent="1" vertex="1">
          <mxGeometry x="1039" y="590" width="80" height="40" as="geometry" />
        </mxCell>
        <mxCell id="7aNGyFdgT1ng_6vokH2H-5" value="" style="endArrow=none;html=1;rounded=0;exitX=0;exitY=0.5;exitDx=0;exitDy=0;entryX=1;entryY=0.5;entryDx=0;entryDy=0;" parent="1" source="7aNGyFdgT1ng_6vokH2H-2" target="7aNGyFdgT1ng_6vokH2H-3" edge="1">
          <mxGeometry relative="1" as="geometry">
            <mxPoint x="1059" y="690" as="sourcePoint" />
            <mxPoint x="1219" y="690" as="targetPoint" />
          </mxGeometry>
        </mxCell>
        <mxCell id="7aNGyFdgT1ng_6vokH2H-6" value="" style="endArrow=none;html=1;rounded=0;entryX=0.5;entryY=0;entryDx=0;entryDy=0;exitX=0.25;exitY=1;exitDx=0;exitDy=0;" parent="1" source="7aNGyFdgT1ng_6vokH2H-2" target="7aNGyFdgT1ng_6vokH2H-4" edge="1">
          <mxGeometry relative="1" as="geometry">
            <mxPoint x="1045" y="530" as="sourcePoint" />
            <mxPoint x="939" y="630" as="targetPoint" />
          </mxGeometry>
        </mxCell>
        <mxCell id="7aNGyFdgT1ng_6vokH2H-7" value="Morada" style="ellipse;whiteSpace=wrap;html=1;align=center;" parent="1" vertex="1">
          <mxGeometry x="1178.5" y="520" width="70" height="40" as="geometry" />
        </mxCell>
        <mxCell id="7aNGyFdgT1ng_6vokH2H-8" value="" style="endArrow=none;html=1;rounded=0;exitX=0;exitY=0.5;exitDx=0;exitDy=0;entryX=1;entryY=0.5;entryDx=0;entryDy=0;" parent="1" source="7aNGyFdgT1ng_6vokH2H-7" target="7aNGyFdgT1ng_6vokH2H-2" edge="1">
          <mxGeometry relative="1" as="geometry">
            <mxPoint x="1361" y="572" as="sourcePoint" />
            <mxPoint x="1287" y="588" as="targetPoint" />
          </mxGeometry>
        </mxCell>
        <mxCell id="7aNGyFdgT1ng_6vokH2H-9" value="Telefone" style="ellipse;shape=doubleEllipse;margin=3;whiteSpace=wrap;html=1;align=center;" parent="1" vertex="1">
          <mxGeometry x="1074" y="440" width="90" height="40" as="geometry" />
        </mxCell>
        <mxCell id="7aNGyFdgT1ng_6vokH2H-10" value="" style="endArrow=none;html=1;rounded=0;exitX=0.5;exitY=1;exitDx=0;exitDy=0;entryX=0.5;entryY=0;entryDx=0;entryDy=0;" parent="1" source="7aNGyFdgT1ng_6vokH2H-9" target="7aNGyFdgT1ng_6vokH2H-2" edge="1">
          <mxGeometry relative="1" as="geometry">
            <mxPoint x="1109" y="560" as="sourcePoint" />
            <mxPoint x="1075" y="590" as="targetPoint" />
          </mxGeometry>
        </mxCell>
        <mxCell id="7aNGyFdgT1ng_6vokH2H-11" value="Rua" style="ellipse;whiteSpace=wrap;html=1;align=center;" parent="1" vertex="1">
          <mxGeometry x="1248.5" y="440" width="70" height="40" as="geometry" />
        </mxCell>
        <mxCell id="7aNGyFdgT1ng_6vokH2H-12" value="Num" style="ellipse;whiteSpace=wrap;html=1;align=center;" parent="1" vertex="1">
          <mxGeometry x="1325" y="500" width="70" height="40" as="geometry" />
        </mxCell>
        <mxCell id="7aNGyFdgT1ng_6vokH2H-13" value="País" style="ellipse;whiteSpace=wrap;html=1;align=center;" parent="1" vertex="1">
          <mxGeometry x="1341" y="570" width="80" height="40" as="geometry" />
        </mxCell>
        <mxCell id="7aNGyFdgT1ng_6vokH2H-14" value="Localidade" style="ellipse;whiteSpace=wrap;html=1;align=center;" parent="1" vertex="1">
          <mxGeometry x="1266" y="630" width="80" height="40" as="geometry" />
        </mxCell>
        <mxCell id="7aNGyFdgT1ng_6vokH2H-15" value="CodPostal" style="ellipse;whiteSpace=wrap;html=1;align=center;" parent="1" vertex="1">
          <mxGeometry x="1149" y="610" width="81" height="40" as="geometry" />
        </mxCell>
        <mxCell id="7aNGyFdgT1ng_6vokH2H-16" value="" style="endArrow=none;html=1;rounded=0;exitX=0;exitY=1;exitDx=0;exitDy=0;entryX=0.5;entryY=0;entryDx=0;entryDy=0;" parent="1" source="7aNGyFdgT1ng_6vokH2H-11" target="7aNGyFdgT1ng_6vokH2H-7" edge="1">
          <mxGeometry relative="1" as="geometry">
            <mxPoint x="1355" y="440" as="sourcePoint" />
            <mxPoint x="1295" y="470" as="targetPoint" />
          </mxGeometry>
        </mxCell>
        <mxCell id="7aNGyFdgT1ng_6vokH2H-17" value="" style="endArrow=none;html=1;rounded=0;exitX=0;exitY=0.5;exitDx=0;exitDy=0;entryX=0.971;entryY=0.25;entryDx=0;entryDy=0;entryPerimeter=0;" parent="1" source="7aNGyFdgT1ng_6vokH2H-12" target="7aNGyFdgT1ng_6vokH2H-7" edge="1">
          <mxGeometry relative="1" as="geometry">
            <mxPoint x="1365" y="450" as="sourcePoint" />
            <mxPoint x="1305" y="480" as="targetPoint" />
          </mxGeometry>
        </mxCell>
        <mxCell id="7aNGyFdgT1ng_6vokH2H-18" value="" style="endArrow=none;html=1;rounded=0;exitX=0;exitY=0.5;exitDx=0;exitDy=0;entryX=0.971;entryY=0.75;entryDx=0;entryDy=0;entryPerimeter=0;" parent="1" source="7aNGyFdgT1ng_6vokH2H-13" target="7aNGyFdgT1ng_6vokH2H-7" edge="1">
          <mxGeometry relative="1" as="geometry">
            <mxPoint x="1375" y="460" as="sourcePoint" />
            <mxPoint x="1269" y="550" as="targetPoint" />
          </mxGeometry>
        </mxCell>
        <mxCell id="7aNGyFdgT1ng_6vokH2H-19" value="" style="endArrow=none;html=1;rounded=0;exitX=0.5;exitY=0;exitDx=0;exitDy=0;entryX=1;entryY=1;entryDx=0;entryDy=0;" parent="1" source="7aNGyFdgT1ng_6vokH2H-14" target="7aNGyFdgT1ng_6vokH2H-7" edge="1">
          <mxGeometry relative="1" as="geometry">
            <mxPoint x="1385" y="470" as="sourcePoint" />
            <mxPoint x="1325" y="500" as="targetPoint" />
          </mxGeometry>
        </mxCell>
        <mxCell id="7aNGyFdgT1ng_6vokH2H-20" value="" style="endArrow=none;html=1;rounded=0;exitX=0.5;exitY=0;exitDx=0;exitDy=0;entryX=0.629;entryY=1.05;entryDx=0;entryDy=0;entryPerimeter=0;" parent="1" source="7aNGyFdgT1ng_6vokH2H-15" target="7aNGyFdgT1ng_6vokH2H-7" edge="1">
          <mxGeometry relative="1" as="geometry">
            <mxPoint x="1395" y="480" as="sourcePoint" />
            <mxPoint x="1335" y="510" as="targetPoint" />
          </mxGeometry>
        </mxCell>
      </root>
    </mxGraphModel>
  </diagram>
</mxfile>
